<svg width="11" height="9" viewBox="0 0 11 9" fill="none" xmlns="http://www.w3.org/2000/svg">
<path d="M4.92824 7.10847C4.97036 7.10853 5.01205 7.11688 5.05095 7.13306C5.08984 7.14923 5.12516 7.17291 5.1549 7.20273C5.18465 7.23256 5.20822 7.26795 5.22428 7.30689C5.24035 7.34583 5.24858 7.38755 5.24852 7.42967C5.24846 7.47179 5.24011 7.51348 5.22394 7.55238C5.20776 7.59127 5.18408 7.62659 5.15426 7.65633C5.12443 7.68607 5.08904 7.70965 5.0501 7.72571C5.01117 7.74178 4.96945 7.75001 4.92732 7.74995C4.84226 7.74983 4.76072 7.71592 4.70066 7.65569C4.64059 7.59545 4.60692 7.51382 4.60704 7.42875C4.60716 7.34369 4.64107 7.26215 4.7013 7.20209C4.76154 7.14202 4.84317 7.10835 4.92824 7.10847ZM9.95794 5.12515C9.91582 5.12512 9.87411 5.11679 9.83521 5.10065C9.79631 5.0845 9.76097 5.06085 9.7312 5.03104C9.70144 5.00124 9.67784 4.96586 9.66175 4.92694C9.64566 4.88801 9.63739 4.8463 9.63742 4.80418C9.63745 4.76205 9.64578 4.72035 9.66192 4.68145C9.67807 4.64255 9.70172 4.60721 9.73153 4.57744C9.76133 4.54768 9.79671 4.52408 9.83563 4.50799C9.87456 4.4919 9.91627 4.48363 9.95839 4.48366C10.0435 4.48372 10.125 4.51757 10.1851 4.57776C10.2452 4.63796 10.279 4.71957 10.2789 4.80463C10.2788 4.8897 10.245 4.97126 10.1848 5.03137C10.1246 5.09147 10.043 5.12521 9.95794 5.12515ZM9.95794 3.81297C9.69495 3.81321 9.4428 3.91779 9.25683 4.10376C9.07087 4.28972 8.96629 4.54187 8.96605 4.80486C8.96605 4.91117 8.98384 5.01702 9.01852 5.12013L5.74219 6.86437C5.65134 6.73246 5.52978 6.62462 5.38798 6.55015C5.24618 6.47567 5.0884 6.4368 4.92824 6.43687C4.55001 6.43687 4.20554 6.65359 4.03855 6.99167L1.09528 5.4395C0.784118 5.27617 0.551431 4.76425 0.576068 4.29797C0.588843 4.05479 0.672793 3.8659 0.801 3.7929C0.882212 3.74727 0.97985 3.75092 1.08387 3.80522L1.10304 3.81571C1.88322 4.22634 4.43549 5.5709 4.54316 5.62064C4.70878 5.69774 4.80094 5.72877 5.08382 5.59463L10.3599 2.85074C10.4375 2.82154 10.5278 2.74717 10.5278 2.63448C10.5278 2.47844 10.3663 2.41685 10.3658 2.41685C10.0656 2.27313 9.60434 2.05732 9.15448 1.84654C8.19271 1.39622 7.10273 0.886129 6.62412 0.635191C6.21076 0.418929 5.87815 0.601429 5.81884 0.637929L5.70386 0.69496C3.54945 1.7603 0.66595 3.18837 0.5017 3.28829C0.208331 3.46714 0.026287 3.82347 0.00256203 4.26557C-0.033938 4.96683 0.323306 5.6982 0.834762 5.96602L3.9473 7.5711C3.98159 7.80688 4.09956 8.02245 4.27966 8.17843C4.45977 8.33441 4.68998 8.42038 4.92824 8.42064C5.18845 8.4202 5.4381 8.31766 5.6235 8.13508C5.8089 7.95249 5.91525 7.70444 5.91967 7.44427L9.34793 5.58596C9.52131 5.72192 9.73711 5.79629 9.95794 5.79629C10.2209 5.79605 10.4731 5.69147 10.659 5.50551C10.845 5.31954 10.9496 5.06739 10.9498 4.8044C10.9496 4.54141 10.845 4.28926 10.659 4.1033C10.4731 3.91734 10.2209 3.81276 9.95794 3.81252" fill="#FDFDFD"/>
</svg>
