<svg width="1920" height="501" viewBox="0 0 1920 501" fill="none" xmlns="http://www.w3.org/2000/svg">
<path fill-rule="evenodd" clip-rule="evenodd" d="M316.5 353C355.443 353 391.441 340.388 420.631 319.025C443.079 340.095 473.283 353 506.5 353C516.727 353 526.667 351.777 536.184 349.469C564.121 437.339 646.376 501 743.5 501C863.622 501 961 403.622 961 283.5C961 282.941 960.998 282.382 960.994 281.823C965.547 282.597 970.226 283 975 283C1020.84 283 1058 245.84 1058 200C1058 196.507 1057.78 193.065 1057.37 189.685C1064.07 194.189 1071.82 197.257 1080.17 198.447C1077.45 209.516 1076 221.089 1076 233C1076 312.529 1140.47 377 1220 377C1291.35 377 1350.58 325.107 1362.01 257.003C1383.18 273.306 1409.71 283 1438.5 283C1458.06 283 1476.58 278.524 1493.08 270.541C1504.73 338.38 1563.84 390 1635 390C1714.53 390 1779 325.529 1779 246C1779 239.556 1778.58 233.211 1777.76 226.991C1778.17 226.997 1778.58 227 1779 227C1812.91 227 1842.07 206.662 1854.95 177.517C1863.09 197.731 1882.88 212 1906 212C1936.38 212 1961 187.376 1961 157C1961 126.624 1936.38 102 1906 102C1886.87 102 1870.02 111.765 1860.17 126.583C1852.17 89.1054 1818.87 61 1779 61C1742.38 61 1711.31 84.7096 1700.28 117.614C1680.69 107.629 1658.5 102 1635 102C1607.24 102 1581.32 109.854 1559.33 123.462C1544.49 70.6891 1496.01 32 1438.5 32C1379.9 32 1330.69 72.1572 1316.87 126.452C1291.29 103.184 1257.3 89 1220 89C1188.45 89 1159.28 99.1438 1135.55 116.348C1126.02 99.9921 1108.29 89 1088 89C1058.72 89 1034.79 111.873 1033.1 140.722C1018.13 126.048 997.619 117 975 117C949.799 117 927.222 128.231 912 145.961C872.115 97.156 811.446 66 743.5 66C682.393 66 627.173 91.1995 587.662 131.773C565.781 113.202 537.448 102 506.5 102C496.706 102 487.174 103.122 478.026 105.244C450.641 43.2582 388.622 0 316.5 0C237.254 0 170.206 52.2261 147.897 124.137C133.769 119.505 118.677 117 103 117C23.471 117 -41 181.471 -41 261C-41 340.529 23.471 405 103 405C157.511 405 204.947 374.711 229.398 330.046C255.098 344.656 284.824 353 316.5 353Z" fill="#25262F"/>
</svg>
