<svg width="11" height="11" viewBox="0 0 11 11" fill="none" xmlns="http://www.w3.org/2000/svg">
<path d="M3.47938 8.49986C3.47938 8.54264 3.43115 8.57686 3.37033 8.57686C3.30112 8.58327 3.25288 8.54905 3.25288 8.49986C3.25288 8.45709 3.30112 8.42287 3.36194 8.42287C3.42486 8.41646 3.47938 8.45067 3.47938 8.49986ZM2.82713 8.40362C2.81245 8.4464 2.8544 8.49559 2.91731 8.50842C2.97184 8.52981 3.03476 8.50842 3.04735 8.46564C3.05993 8.42287 3.02008 8.37368 2.95716 8.35443C2.90263 8.33946 2.84181 8.36085 2.82713 8.40362ZM3.75413 8.36727C3.69331 8.38224 3.65136 8.42287 3.65765 8.47206C3.66394 8.51483 3.71847 8.54264 3.78139 8.52767C3.84221 8.5127 3.88416 8.47206 3.87787 8.42929C3.87158 8.38865 3.81495 8.36085 3.75413 8.36727ZM5.13414 0.171875C2.22521 0.171875 0 2.4239 0 5.39023C0 7.76202 1.4639 9.79162 3.55489 10.5059C3.82334 10.5551 3.91772 10.3862 3.91772 10.2472C3.91772 10.1146 3.91142 9.38314 3.91142 8.93401C3.91142 8.93401 2.44333 9.25482 2.13503 8.29669C2.13503 8.29669 1.89594 7.67434 1.55199 7.51394C1.55199 7.51394 1.07171 7.17816 1.58554 7.18458C1.58554 7.18458 2.10776 7.22735 2.39509 7.73636C2.8544 8.56189 3.6241 8.32449 3.92401 8.18334C3.97225 7.84115 4.10857 7.60376 4.25957 7.46261C3.08719 7.33001 1.90433 7.15678 1.90433 5.09938C1.90433 4.51124 2.06372 4.2161 2.39929 3.8397C2.34476 3.70068 2.16649 3.12752 2.45382 2.38754C2.89215 2.24853 3.90094 2.96498 3.90094 2.96498C4.32039 2.84522 4.77131 2.78319 5.21803 2.78319C5.66475 2.78319 6.11566 2.84522 6.53512 2.96498C6.53512 2.96498 7.54391 2.24639 7.98224 2.38754C8.26957 3.12966 8.0913 3.70068 8.03677 3.8397C8.37234 4.21824 8.57787 4.51338 8.57787 5.09938C8.57787 7.16319 7.34257 7.32787 6.17019 7.46261C6.36314 7.63156 6.52673 7.95236 6.52673 8.45495C6.52673 9.17568 6.52044 10.0675 6.52044 10.2429C6.52044 10.3819 6.61691 10.5508 6.88327 10.5017C8.98055 9.79162 10.4025 7.76202 10.4025 5.39023C10.4025 2.4239 8.04306 0.171875 5.13414 0.171875ZM2.03855 7.54815C2.01129 7.56954 2.01758 7.61873 2.05324 7.65937C2.08679 7.69358 2.13503 7.70856 2.16229 7.68075C2.18956 7.65937 2.18327 7.61018 2.14761 7.56954C2.11406 7.53532 2.06582 7.52035 2.03855 7.54815ZM1.81205 7.37492C1.79737 7.40272 1.81834 7.43694 1.86029 7.45833C1.89384 7.47972 1.93579 7.4733 1.95047 7.44336C1.96515 7.41556 1.94418 7.38134 1.90223 7.35995C1.86029 7.34712 1.82673 7.35354 1.81205 7.37492ZM2.49157 8.13629C2.45801 8.16409 2.47059 8.22825 2.51883 8.26889C2.56707 8.31808 2.62789 8.32449 2.65515 8.29027C2.68242 8.26247 2.66984 8.19831 2.62789 8.15768C2.58175 8.10849 2.51883 8.10207 2.49157 8.13629ZM2.25248 7.82191C2.21892 7.84329 2.21892 7.8989 2.25248 7.94809C2.28603 7.99728 2.34266 8.01866 2.36992 7.99728C2.40348 7.96947 2.40348 7.91387 2.36992 7.86468C2.34056 7.81549 2.28603 7.7941 2.25248 7.82191Z" fill="#FDFDFD"/>
</svg>
