<svg width="10" height="10" viewBox="0 0 10 10" fill="none" xmlns="http://www.w3.org/2000/svg">
<path fill-rule="evenodd" clip-rule="evenodd" d="M3.82617 3.33509L5.52027 3.33509V4.17895C5.76431 3.69362 6.39013 3.25755 7.33024 3.25755C9.13245 3.25755 9.56031 4.22365 9.56031 5.99622V9.27906H7.73575L7.73575 6.3999C7.73575 5.39046 7.49171 4.8212 6.87045 4.8212C6.0088 4.8212 5.65073 5.43471 5.65073 6.39944L5.65073 9.27906H3.82617L3.82617 3.33509ZM0.6975 9.20151H2.52206L2.52206 3.25755L0.6975 3.25755L0.6975 9.20151ZM2.78343 1.31941C2.7835 1.47234 2.75317 1.62376 2.6942 1.76487C2.63524 1.90598 2.54882 2.03396 2.43996 2.14137C2.21937 2.36061 1.92078 2.48332 1.60978 2.48257C1.29933 2.48236 1.00143 2.35996 0.780518 2.14183C0.672053 2.03405 0.585922 1.90592 0.52706 1.7648C0.468199 1.62367 0.437764 1.47232 0.4375 1.31941C0.4375 1.0106 0.560658 0.715022 0.780974 0.496987C1.00169 0.278568 1.29971 0.156114 1.61024 0.15625C1.92132 0.15625 2.21964 0.278952 2.43996 0.496987C2.65982 0.715022 2.78343 1.0106 2.78343 1.31941Z" fill="white"/>
</svg>
