<svg width="10" height="8" viewBox="0 0 10 8" fill="none" xmlns="http://www.w3.org/2000/svg">
<path d="M9.16143 1.24129C8.83429 1.38241 8.47829 1.48397 8.11159 1.52352C8.49231 1.29735 8.77741 0.94002 8.9134 0.51859C8.55615 0.731111 8.16478 0.880135 7.75666 0.95905C7.58608 0.776694 7.37978 0.63142 7.1506 0.532282C6.92143 0.433144 6.67429 0.382265 6.42459 0.382817C5.41431 0.382817 4.60181 1.20173 4.60181 2.20667C4.60181 2.34778 4.61891 2.4889 4.64671 2.62468C3.13396 2.54556 1.78479 1.82287 0.887829 0.71637C0.724394 0.995523 0.638748 1.31337 0.639803 1.63685C0.639803 2.26974 0.961595 2.8278 1.4523 3.15601C1.16312 3.14462 0.880712 3.06513 0.628043 2.92402V2.94647C0.628043 3.83273 1.25452 4.56719 2.08947 4.73611C1.9327 4.77683 1.77143 4.79766 1.60946 4.79811C1.49079 4.79811 1.37854 4.78635 1.26521 4.77032C1.49613 5.49302 2.16859 6.01793 2.96933 6.03504C2.34285 6.52575 1.55814 6.8144 0.706086 6.8144C0.553207 6.8144 0.412089 6.80905 0.265625 6.79195C1.07385 7.31045 2.03281 7.60979 3.06554 7.60979C6.41817 7.60979 8.25271 4.83232 8.25271 2.42155C8.25271 2.34244 8.25271 2.26333 8.24737 2.18422C8.6023 1.92443 8.9134 1.60264 9.16143 1.24129Z" fill="white"/>
</svg>
