<svg width="12" height="9" viewBox="0 0 12 9" fill="none" xmlns="http://www.w3.org/2000/svg">
<path d="M5.75077 0.890625H5.81166C6.37408 0.892678 9.22382 0.913204 9.99219 1.11984C10.2245 1.1829 10.4361 1.30582 10.606 1.47631C10.7759 1.64681 10.8981 1.85891 10.9603 2.09141C11.0294 2.35141 11.078 2.69557 11.1109 3.05068L11.1177 3.12184L11.1328 3.29973L11.1382 3.37089C11.1827 3.99626 11.1882 4.58194 11.1889 4.70989V4.7612C11.1882 4.89394 11.182 5.51931 11.1328 6.17068L11.1273 6.24252L11.1211 6.31368C11.0869 6.70505 11.0363 7.09368 10.9603 7.37968C10.8983 7.61228 10.7762 7.82448 10.6063 7.995C10.4363 8.16553 10.2246 8.28838 9.99219 8.35126C9.1985 8.56473 6.18182 8.57978 5.76377 8.58047H5.66661C5.45519 8.58047 4.58077 8.57636 3.66392 8.54489L3.54761 8.54078L3.48808 8.53805L3.37108 8.53326L3.25408 8.52847C2.49461 8.49494 1.7714 8.44089 1.43819 8.35057C1.20589 8.28776 0.994179 8.165 0.824262 7.99461C0.654345 7.82421 0.532188 7.61215 0.47003 7.37968C0.394082 7.09436 0.343451 6.70505 0.30924 6.31368L0.303766 6.24184L0.298293 6.17068C0.264525 5.70706 0.245814 5.24246 0.242188 4.77762L0.242188 4.69347C0.243556 4.54636 0.24903 4.03799 0.285977 3.47694L0.290766 3.40647L0.292819 3.37089L0.298293 3.29973L0.313345 3.12184L0.320187 3.05068C0.35303 2.69557 0.401609 2.35073 0.470714 2.09141C0.532767 1.85882 0.654877 1.64662 0.824802 1.47609C0.994726 1.30557 1.20649 1.18271 1.43887 1.11984C1.77208 1.03089 2.49529 0.976151 3.25477 0.941941L3.37108 0.937151L3.48877 0.933046L3.54761 0.930994L3.66461 0.926204C4.31578 0.90525 4.96721 0.893617 5.61871 0.891309H5.75077V0.890625ZM4.62113 3.08694V6.38347L7.4654 4.73589L4.62113 3.08694Z" fill="white"/>
</svg>
